<?xml version="1.0" encoding="UTF-8"?>
<svg id="Layer_1" data-name="Layer 1" xmlns="http://www.w3.org/2000/svg" viewBox="0 0 2574.72 2574.72">
  <defs>
    <style>
      .cls-1 {
        fill: #202733;
      }
    </style>
  </defs>
  <path class="cls-1" d="M412.78,1379.4h40.31c.8,0,1.54-1.23,1.97-1.91l25.84-40.81c1.09-1.72,3.64-1.64,4.61.16l22.09,40.96c.53.99,1.56,1.6,2.68,1.6h39.33l-64.33-110.78c-1.23-2.02-4.16-2.02-5.4,0l-67.1,110.79Z"/>
  <path class="cls-1" d="M322.89,1379.38h49.48c2.1.05,3.37-1.6,4.49-3.39l106.36-171.9c.35-.57,1.18-.57,1.54,0l108.58,172.41c.79,1.25,1.93,2.83,3.41,2.83l50.01.06-162.48-259.66-161.39,259.66Z"/>
  <g>
    <path class="cls-1" d="M714.53,1546.62l-4.22,13.16h-13.78l22.83-68.6h19.44l23.24,68.6h-13.47l-4.42-13.16h-29.62ZM729.34,1501.26l-11.72,35.58h23.55l-11.83-35.58Z"/>
    <path class="cls-1" d="M832.59,1519.88h31.98v9.67h-31.98v19.33h34.04v10.9h-47.21v-68.6h46.9v10.9h-33.73v17.79Z"/>
    <path class="cls-1" d="M927.72,1491.18h33.73c16.56,0,22.21,5.14,22.21,20.47,0,13.68-2.37,17.38-12.34,19.33v.51c7.82.41,11.72,5.04,11.62,13.37v14.91h-13.27v-12.34c.21-7.51-2.98-10.7-10.28-10.49h-18.51v22.83h-13.16v-68.6ZM959.29,1525.74c4.11,0,6.79-.62,8.33-2.06,2.16-1.75,2.67-3.81,2.67-9.67,0-9.67-1.65-11.52-10.08-11.52h-19.33v23.24h18.41Z"/>
    <path class="cls-1" d="M1092.26,1492.83c6.17,2.78,9.67,7.71,11,15.74.51,3.08.72,7.1.72,16.25,0,16.46-.62,20.98-3.5,26.12-2.47,4.32-6.99,7.3-13.16,8.54-2.78.62-8.23.93-14.91.93-10.18,0-15.32-.82-19.54-3.09-5.45-2.98-8.23-7.4-9.46-15.02-.51-3.19-.62-6.48-.62-15.02,0-17.69.72-22.73,3.91-27.77,2.57-4.01,7.1-6.89,12.75-8.02,2.67-.62,8.33-.93,14.5-.93,9.77,0,14.3.62,18.31,2.26ZM1056.17,1528.31c0,12.03.51,15.12,2.98,18,1.95,2.26,5.04,2.78,15.53,2.78s12.86-1.13,14.6-6.07c1.23-3.39,1.34-5.14,1.34-18,0-10.8,0-11.11-.51-14.3-.62-4.01-2.26-6.58-4.83-7.71-2.26-.93-4.83-1.13-12.55-1.13-8.33,0-11.11.51-13.27,2.67-2.26,2.16-3.19,5.76-3.29,12.55v11.21Z"/>
    <path class="cls-1" d="M1245.29,1559.78h-12.96v-37.44c0-4.94.1-6.27.51-15.22l.21-5.04h-.41l-1.54,4.73c-2.88,8.95-3.6,11.31-4.73,14.3l-15.12,38.67h-11.83l-15.22-38.36c-1.34-3.29-2.06-5.45-4.94-14.3l-1.54-4.73h-.41l.31,4.94c.41,8.64.51,10.8.51,15.02v37.44h-12.96v-68.6h21.19l12.24,31.78c1.23,3.19,1.95,5.45,4.83,14.19l1.54,4.83h.41l1.54-4.73c2.67-8.64,3.5-11,4.63-14.19l12.14-31.88h21.6v68.6Z"/>
    <path class="cls-1" d="M1321.29,1546.62l-4.22,13.16h-13.78l22.83-68.6h19.44l23.24,68.6h-13.47l-4.42-13.16h-29.62ZM1336.1,1501.26l-11.72,35.58h23.55l-11.83-35.58Z"/>
    <path class="cls-1" d="M1447.58,1559.78h-13.16v-57.08h-19.85v-11.52h53.27v11.52h-20.26v57.08Z"/>
    <path class="cls-1" d="M1526.25,1491.18h33.73c16.56,0,22.21,5.14,22.21,20.47,0,13.68-2.37,17.38-12.34,19.33v.51c7.82.41,11.72,5.04,11.62,13.37v14.91h-13.27v-12.34c.21-7.51-2.98-10.7-10.28-10.49h-18.51v22.83h-13.16v-68.6ZM1557.82,1525.74c4.11,0,6.79-.62,8.33-2.06,2.16-1.75,2.67-3.81,2.67-9.67,0-9.67-1.65-11.52-10.08-11.52h-19.33v23.24h18.41Z"/>
    <path class="cls-1" d="M1656.34,1559.78h-13.16v-68.6h13.16v68.6Z"/>
    <path class="cls-1" d="M1757.75,1524.4l21.91,35.38h-15.22l-9.87-16.46c-2.26-3.91-2.98-5.25-5.76-10.49l-1.44-2.67h-.21l-2.26,4.32c-1.23,2.26-2.57,4.73-5.04,8.84l-9.98,16.46h-15.63l22.52-35.38-20.88-33.22h15.43l9.26,15.32c2.47,4.22,2.88,4.94,6.48,11.93h.21l1.34-2.47c2.26-4.32,2.98-5.66,5.25-9.46l9.15-15.32h15.32l-20.57,33.22Z"/>
  </g>
  <g>
    <polygon class="cls-1" points="1061.36 1153.58 1017.19 1152.51 1013.44 1379.38 1057.9 1379.39 1061.36 1153.58"/>
    <rect class="cls-1" x="1016.81" y="1062.38" width="44.01" height="159.48" transform="translate(2180.9375 103.309) rotate(90)"/>
  </g>
  <g>
    <polygon class="cls-1" points="697.7 1120.57 653.69 1119.89 649.72 1379.28 693.53 1379.38 697.7 1120.57"/>
    <rect class="cls-1" x="716.45" y="1277.58" width="44.01" height="159.48" transform="translate(2095.7754 618.8625) rotate(90)"/>
  </g>
  <g>
    <polygon class="cls-1" points="880.07 1120.23 836.06 1119.55 832.09 1378.93 875.9 1379.04 880.07 1120.23"/>
    <rect class="cls-1" x="898.82" y="1277.24" width="44.01" height="159.48" transform="translate(2277.8066 436.1483) rotate(90)"/>
  </g>
  <g>
    <polygon class="cls-1" points="1232.96 1154.13 1188.8 1153.06 1185.04 1379.93 1229.51 1379.94 1232.96 1154.13"/>
    <rect class="cls-1" x="1188.16" y="1062.68" width="44.52" height="159.48" transform="translate(2352.8437 -67.9921) rotate(90)"/>
    <rect class="cls-1" x="1186.5" y="1278.37" width="44.01" height="159.48" transform="translate(2566.6205 149.6123) rotate(90)"/>
  </g>
  <polygon class="cls-1" points="1336.7 1121.94 1332.89 1381.29 1376.6 1381.29 1377.24 1185.93 1486 1381.29 1542.38 1381.29 1546.6 1121.98 1502.53 1121.92 1504.03 1321.33 1393.02 1121.98 1336.7 1121.94"/>
  <g>
    <polygon class="cls-1" points="1679.98 1155.69 1635.81 1154.62 1632.05 1381.49 1676.52 1381.5 1679.98 1155.69"/>
    <rect class="cls-1" x="1635.36" y="1064.43" width="44.14" height="159.48" transform="translate(2801.6014 -513.2562) rotate(90)"/>
    <rect class="cls-1" x="1633.51" y="1279.94" width="44.01" height="159.48" transform="translate(3015.1924 -295.8377) rotate(90)"/>
  </g>
  <path class="cls-1" d="M1758.4,1121.12l44.4-.42-3.15,180.74c-.17,1.77.65,21.25,14.03,28.28,6.4,3.36,26.52,4.89,27.64,5,2.09.2,12.55-.05,19.14.21,5.39.22,11.35.23,14.35.32,2.5,0,9.25-.57,13.72-.64,25.05-.36,25.03-2.23,28.28-3.4,3.66-1.32,8.3-4.65,12.33-9.99,2.64-3.5,3.32-7.16,4.36-13.4.64-3.83,1.98-9.21,1.7-15.31,0-55.72-2.56-116.73-2.56-172.45l44.27.7-.24,202.49s4.15,53.91-38.28,56.14c0,0-104.77.64-117.27,0,0,0-69.19.96-64.85-69l2.13-189.25Z"/>
  <polygon class="cls-1" points="2000.88 1120.32 2043.62 1120.32 2118.3 1237.65 2209.06 1120.06 2251.84 1120.06 2247.78 1379.4 2203.36 1379.22 2207.82 1191.51 2141.69 1275.08 2090.23 1276.35 2040.47 1196.4 2039.57 1379.34 1996.03 1380.34 2000.88 1120.32"/>
</svg>